<svg width="227" height="232" viewBox="0 0 227 232" fill="none" xmlns="http://www.w3.org/2000/svg">
<g filter="url(#filter0_d_1283_6067)">
<rect x="12" y="2.34912" width="200.492" height="206.629" rx="5.24161" fill="white"/>
<g clip-path="url(#clip0_1283_6067)">
<path d="M34.397 20.8094L31.8908 23.3156L34.397 25.8217L33.6217 26.5916L30.3456 23.3156L33.6217 20.0396L34.397 20.8094Z" fill="#B5BEC6"/>
<path d="M64.5923 19.974C63.8363 19.26 62.7023 18.91 61.7083 18.91C59.9163 18.91 58.0823 19.806 58.0823 21.822C58.0823 23.67 59.3843 24.258 60.5883 24.636C61.8343 25.028 62.8703 25.322 62.8703 26.358C62.8703 27.422 61.9043 27.828 61.0783 27.828C60.2943 27.828 59.3983 27.408 58.9083 26.736L57.6483 27.912C58.4323 28.836 59.7623 29.326 61.0503 29.326C62.9963 29.326 64.6623 28.29 64.6623 26.162C64.6623 24.216 63.0383 23.656 61.7643 23.264C60.6443 22.914 59.8743 22.648 59.8743 21.738C59.8743 20.772 60.8123 20.38 61.6243 20.38C62.3243 20.38 63.0663 20.744 63.4443 21.234L64.5923 19.974ZM67.6334 25.042C67.7034 24.104 68.5014 23.418 69.4954 23.418C70.5874 23.418 71.0774 24.174 71.0774 25.042H67.6334ZM72.7574 25.798C72.7574 23.376 71.3854 22.158 69.5094 22.158C67.4794 22.158 65.9534 23.586 65.9534 25.756C65.9534 27.94 67.4934 29.27 69.5654 29.27C70.8394 29.27 71.7914 28.822 72.4494 27.926L71.3294 27.03C70.9514 27.562 70.3914 27.898 69.5514 27.898C68.5714 27.898 67.7034 27.198 67.6334 26.246H72.7434C72.7574 26.092 72.7574 25.952 72.7574 25.798ZM74.3845 22.354V32.434H76.0645V28.178H76.0925C76.5265 28.85 77.3805 29.27 78.3185 29.27C80.3625 29.27 81.6225 27.646 81.6225 25.686C81.6225 23.698 80.2785 22.158 78.3605 22.158C77.1285 22.158 76.3725 22.76 76.0365 23.292H75.9945V22.354H74.3845ZM79.9145 25.686C79.9145 26.736 79.2845 27.87 77.9825 27.87C76.7505 27.87 76.0085 26.764 76.0085 25.714C76.0085 24.664 76.7505 23.53 77.9825 23.53C79.2845 23.53 79.9145 24.636 79.9145 25.686ZM83.4538 23.698V26.834C83.4538 28.122 83.8598 29.214 85.6378 29.214C86.0158 29.214 86.4638 29.144 86.7578 29.032L86.7018 27.716C86.5058 27.814 86.2118 27.856 85.9878 27.856C85.2458 27.856 85.1058 27.422 85.1058 26.82V23.698H86.7858V22.354H85.1058V20.408H83.4538V22.354H82.2778V23.698H83.4538ZM89.2897 25.042C89.3597 24.104 90.1577 23.418 91.1517 23.418C92.2437 23.418 92.7337 24.174 92.7337 25.042H89.2897ZM94.4137 25.798C94.4137 23.376 93.0417 22.158 91.1657 22.158C89.1357 22.158 87.6097 23.586 87.6097 25.756C87.6097 27.94 89.1497 29.27 91.2217 29.27C92.4957 29.27 93.4477 28.822 94.1057 27.926L92.9857 27.03C92.6077 27.562 92.0477 27.898 91.2077 27.898C90.2277 27.898 89.3597 27.198 89.2897 26.246H94.3997C94.4137 26.092 94.4137 25.952 94.4137 25.798ZM104.063 22.158C103.055 22.158 102.299 22.62 101.851 23.432C101.473 22.676 100.787 22.158 99.7507 22.158C98.6727 22.158 97.9587 22.774 97.6647 23.432H97.6367V22.354H96.0407V29.074H97.7207V25.378C97.7207 24.482 98.1827 23.558 99.1907 23.558C100.045 23.558 100.437 24.188 100.437 25.014V29.074H102.117V25.406C102.117 24.538 102.551 23.558 103.601 23.558C104.679 23.558 104.861 24.552 104.861 25.35V29.074H106.541V24.874C106.541 23.502 105.813 22.158 104.063 22.158ZM108.524 18.49V29.074H110.12V28.066H110.148C110.61 28.836 111.52 29.27 112.458 29.27C114.502 29.27 115.762 27.646 115.762 25.686C115.762 23.698 114.418 22.158 112.5 22.158C111.268 22.158 110.596 22.774 110.246 23.208H110.204V18.49H108.524ZM114.054 25.686C114.054 26.736 113.424 27.87 112.122 27.87C110.89 27.87 110.148 26.764 110.148 25.714C110.148 24.664 110.89 23.53 112.122 23.53C113.424 23.53 114.054 24.636 114.054 25.686ZM118.671 25.042C118.741 24.104 119.539 23.418 120.533 23.418C121.625 23.418 122.115 24.174 122.115 25.042H118.671ZM123.795 25.798C123.795 23.376 122.423 22.158 120.547 22.158C118.517 22.158 116.991 23.586 116.991 25.756C116.991 27.94 118.531 29.27 120.603 29.27C121.877 29.27 122.829 28.822 123.487 27.926L122.367 27.03C121.989 27.562 121.429 27.898 120.589 27.898C119.609 27.898 118.741 27.198 118.671 26.246H123.781C123.795 26.092 123.795 25.952 123.795 25.798ZM125.422 29.074H127.102V25.476C127.102 24.986 127.396 23.67 128.908 23.67C129.062 23.67 129.202 23.684 129.426 23.74V22.2C129.314 22.172 129.146 22.158 129.02 22.158C128.138 22.158 127.424 22.704 127.06 23.474H127.032V22.354H125.422V29.074ZM133.979 29.074H140.573V27.534H136.107L138.963 24.804C139.845 23.964 140.559 23.082 140.559 21.808C140.559 19.904 138.977 18.91 137.255 18.91C135.435 18.91 134.105 20.114 133.909 21.752L135.547 22.004C135.673 21.038 136.275 20.31 137.227 20.31C138.123 20.31 138.809 20.912 138.809 21.836C138.809 22.606 138.417 23.18 137.801 23.782L133.979 27.534V29.074ZM149.328 24.118C149.328 20.912 148.082 18.91 145.842 18.91C143.588 18.91 142.328 20.912 142.328 24.118C142.328 27.324 143.588 29.326 145.842 29.326C148.082 29.326 149.328 27.324 149.328 24.118ZM147.606 24.118C147.606 25.504 147.34 27.898 145.842 27.898C144.33 27.898 144.05 25.504 144.05 24.118C144.05 22.732 144.33 20.31 145.842 20.31C147.34 20.31 147.606 22.732 147.606 24.118ZM151.069 29.074H157.663V27.534H153.197L156.053 24.804C156.935 23.964 157.649 23.082 157.649 21.808C157.649 19.904 156.067 18.91 154.345 18.91C152.525 18.91 151.195 20.114 150.999 21.752L152.637 22.004C152.763 21.038 153.365 20.31 154.317 20.31C155.213 20.31 155.899 20.912 155.899 21.836C155.899 22.606 155.507 23.18 154.891 23.782L151.069 27.534V29.074ZM162.554 29.074H164.234V19.162H162.708L159.614 21.654L160.594 22.816L162.554 21.206V29.074Z" fill="#4A5660"/>
<path d="M189.56 25.8217L192.066 23.3155L189.56 20.8094L190.335 20.0395L193.611 23.3155L190.335 26.5916L189.56 25.8217Z" fill="#B5BEC6"/>
</g>
<path d="M30.96 49.5403C30.42 49.0303 29.61 48.7803 28.9 48.7803C27.62 48.7803 26.31 49.4203 26.31 50.8603C26.31 52.1803 27.24 52.6003 28.1 52.8703C28.99 53.1503 29.73 53.3603 29.73 54.1003C29.73 54.8603 29.04 55.1503 28.45 55.1503C27.89 55.1503 27.25 54.8503 26.9 54.3703L26 55.2103C26.56 55.8703 27.51 56.2203 28.43 56.2203C29.82 56.2203 31.01 55.4803 31.01 53.9603C31.01 52.5703 29.85 52.1703 28.94 51.8903C28.14 51.6403 27.59 51.4503 27.59 50.8003C27.59 50.1103 28.26 49.8303 28.84 49.8303C29.34 49.8303 29.87 50.0903 30.14 50.4403L30.96 49.5403ZM32.9122 56.0403H34.3222L34.9622 54.4203H38.0322L38.6922 56.0403H40.1322L37.0822 48.9603H35.9922L32.9122 56.0403ZM35.3922 53.3403L36.5022 50.4603L37.5922 53.3403H35.3922ZM42.3327 56.0403H43.5927V50.5703H43.6127L46.9727 56.0403H48.5727V48.9603H47.3127V54.2603H47.2927L44.0027 48.9603H42.3327V56.0403Z" fill="#B5BEC6"/>
<path d="M48.2365 56.0403H49.4365V50.3503H49.4565L51.5765 56.0403H52.4565L54.6065 50.3503H54.6265V56.0403H55.8765V48.9603H53.8965L52.0765 53.9903H52.0465L50.2065 48.9603H48.2365V56.0403ZM58.5958 52.4803C58.5958 54.6903 60.2058 56.2203 62.3858 56.2203C64.5958 56.2203 66.2058 54.6903 66.2058 52.4803C66.2058 50.2103 64.5958 48.7803 62.3858 48.7803C60.2058 48.7803 58.5958 50.2103 58.5958 52.4803ZM59.9658 52.4803C59.9658 51.0203 60.9358 49.8903 62.3958 49.8903C63.8658 49.8903 64.8358 51.0203 64.8358 52.4803C64.8358 53.9903 63.8458 55.0903 62.3958 55.0903C60.9558 55.0903 59.9658 53.9903 59.9658 52.4803ZM68.9221 56.0403H70.1821V50.5703H70.2021L73.5621 56.0403H75.1621V48.9603H73.9021V54.2603H73.8821L70.5921 48.9603H68.9221V56.0403Z" fill="#B5BEC6"/>
<path d="M78.5953 56.0403H79.8553V50.0603H82.0253V48.9603H76.4253V50.0603H78.5953V56.0403ZM89.9888 48.9603H88.7288V53.3903C88.7288 54.2103 88.3488 55.0903 87.1388 55.0903C85.9288 55.0903 85.5488 54.2103 85.5488 53.3903V48.9603H84.2888V53.4403C84.2888 55.1503 85.5188 56.2203 87.1388 56.2203C88.7588 56.2203 89.9888 55.1503 89.9888 53.4403V48.9603ZM92.9875 56.0403H97.8575V54.9203H94.2475V52.9203H97.4975V51.8603H94.2475V50.0603H97.6775V48.9603H92.9875V56.0403Z" fill="#B5BEC6"/>
<path d="M100.986 56.0403H102.206L103.866 50.7303H103.886L105.546 56.0403H106.766L108.836 48.9603H107.496L106.096 54.1603H106.076L104.546 48.9603H103.246L101.686 54.1603H101.666L100.296 48.9603H98.9164L100.986 56.0403ZM111.176 56.0403H116.046V54.9203H112.436V52.9203H115.686V51.8603H112.436V50.0603H115.866V48.9603H111.176V56.0403ZM118.779 56.0403H121.289C123.139 56.0403 125.199 54.9803 125.199 52.5003C125.199 49.8403 123.139 48.9603 121.289 48.9603H118.779V56.0403ZM120.039 54.9403V50.0403H121.089C122.389 50.0403 123.849 50.4703 123.849 52.5003C123.849 54.4103 122.389 54.9403 121.089 54.9403H120.039Z" fill="#B5BEC6"/>
<path d="M127.746 56.0403H129.006V50.0603H131.176V48.9603H125.576V50.0603H127.746V56.0403ZM133.5 56.0403H134.76V52.9003H138.07V56.0403H139.33V48.9603H138.07V51.8203H134.76V48.9603H133.5V56.0403ZM148.032 48.9603H146.772V53.3903C146.772 54.2103 146.392 55.0903 145.182 55.0903C143.972 55.0903 143.592 54.2103 143.592 53.3903V48.9603H142.332V53.4403C142.332 55.1503 143.562 56.2203 145.182 56.2203C146.802 56.2203 148.032 55.1503 148.032 53.4403V48.9603Z" fill="#B5BEC6"/>
<path d="M153.9 56.0403H155.16V53.0603H158.28V52.0003H155.16V50.0603H158.47V48.9603H153.9V56.0403ZM161.132 56.0403H162.392V53.0403H163.312L164.952 56.0403H166.472L164.582 52.9003C165.572 52.6803 166.202 52.0103 166.202 50.9903C166.202 49.4903 164.922 48.9603 163.592 48.9603H161.132V56.0403ZM162.392 52.0103V50.0203H163.532C164.182 50.0203 164.942 50.2103 164.942 50.9803C164.942 51.8403 164.132 52.0103 163.422 52.0103H162.392ZM168.921 56.0403H170.181V48.9603H168.921V56.0403Z" fill="#B5BEC6"/>
<path d="M181.704 49.5403C181.164 49.0303 180.354 48.7803 179.644 48.7803C178.364 48.7803 177.054 49.4203 177.054 50.8603C177.054 52.1803 177.984 52.6003 178.844 52.8703C179.734 53.1503 180.474 53.3603 180.474 54.1003C180.474 54.8603 179.784 55.1503 179.194 55.1503C178.634 55.1503 177.994 54.8503 177.644 54.3703L176.744 55.2103C177.304 55.8703 178.254 56.2203 179.174 56.2203C180.564 56.2203 181.754 55.4803 181.754 53.9603C181.754 52.5703 180.594 52.1703 179.684 51.8903C178.884 51.6403 178.334 51.4503 178.334 50.8003C178.334 50.1103 179.004 49.8303 179.584 49.8303C180.084 49.8303 180.614 50.0903 180.884 50.4403L181.704 49.5403ZM183.656 56.0403H185.066L185.706 54.4203H188.776L189.436 56.0403H190.876L187.826 48.9603H186.736L183.656 56.0403ZM186.136 53.3403L187.246 50.4603L188.336 53.3403H186.136ZM193.911 56.0403H195.171V50.0603H197.341V48.9603H191.741V50.0603H193.911V56.0403Z" fill="#B5BEC6"/>
<path d="M37.1339 89.335H39.0539V78.007H37.3099L33.7739 80.855L34.8939 82.183L37.1339 80.343V89.335Z" fill="#4A5660"/>
<path d="M58.6719 89.335H66.2079V87.575H61.1039L64.3679 84.455C65.3759 83.495 66.1919 82.487 66.1919 81.031C66.1919 78.855 64.3839 77.719 62.4159 77.719C60.3359 77.719 58.8159 79.095 58.5919 80.967L60.4639 81.255C60.6079 80.151 61.2959 79.319 62.3839 79.319C63.4079 79.319 64.1919 80.007 64.1919 81.063C64.1919 81.943 63.7439 82.599 63.0399 83.287L58.6719 87.575V89.335Z" fill="#4A5660"/>
<path d="M85.8573 84.199H86.3373C87.5373 84.199 89.0893 84.647 89.0893 86.119C89.0893 87.479 88.0013 87.991 87.0093 87.991C85.8093 87.991 85.0253 87.287 84.7533 86.391L82.9613 86.951C83.5693 88.839 85.1693 89.623 87.0733 89.623C88.9933 89.623 91.0253 88.487 91.0253 86.135C91.0253 84.743 90.0653 83.687 88.6893 83.415V83.383C89.9213 83.079 90.7213 82.039 90.7213 80.823C90.7213 78.791 89.0573 77.719 87.0733 77.719C85.2653 77.719 83.7773 78.791 83.3773 80.311L85.1853 80.775C85.4093 79.911 86.0653 79.319 86.9933 79.319C87.9533 79.319 88.7853 79.927 88.7853 80.951C88.7853 82.343 87.5053 82.663 86.3693 82.663H85.8573V84.199Z" fill="#4A5660"/>
<path d="M112.931 89.335H114.819V86.983H116.403V85.335H114.819V78.007H112.515L107.699 85.287V86.983H112.931V89.335ZM112.931 85.335H109.683L112.899 80.263H112.931V85.335Z" fill="#4A5660"/>
<path d="M140.341 78.007H133.893L133.701 84.199C134.389 83.847 135.477 83.575 136.341 83.575C137.573 83.575 138.869 84.087 138.869 85.831C138.869 87.207 137.893 87.991 136.757 87.991C135.749 87.991 134.949 87.399 134.629 86.503L132.885 87.143C133.477 88.663 134.821 89.623 136.709 89.623C138.965 89.623 140.837 88.135 140.837 85.623C140.837 83.335 139.157 82.039 136.933 82.039C136.533 82.039 135.957 82.087 135.605 82.183L135.717 79.735H140.341V78.007Z" fill="#4A5660"/>
<path d="M161.879 78.007L159.047 82.391C158.311 83.559 157.879 84.439 157.879 85.735C157.879 87.927 159.655 89.623 162.023 89.623C164.343 89.623 166.151 88.055 166.151 85.655C166.151 83.591 164.535 82.023 162.535 82.023C162.151 82.023 161.639 82.087 161.335 82.215L161.319 82.199L164.215 78.007H161.879ZM159.831 85.783C159.831 84.455 160.743 83.543 162.039 83.543C163.319 83.543 164.183 84.471 164.183 85.751C164.183 87.095 163.303 87.991 162.007 87.991C160.679 87.991 159.831 86.967 159.831 85.783Z" fill="#4A5660"/>
<path d="M182.872 79.735H188.552L183.784 89.335H186.04L190.568 79.767V78.007H182.872V79.735Z" fill="#4A5660"/>
<path d="M37.5499 102.617C35.5659 102.617 33.9659 103.849 33.9659 105.769C33.9659 107.081 34.7179 107.881 35.7259 108.249V108.281C34.6219 108.569 33.5979 109.561 33.5979 111.033C33.5979 113.289 35.3739 114.521 37.5499 114.521C39.7259 114.521 41.5019 113.289 41.5019 111.033C41.5019 109.641 40.5579 108.569 39.3739 108.281V108.249C40.3979 107.913 41.1339 107.001 41.1339 105.689C41.1339 103.769 39.5339 102.617 37.5499 102.617ZM37.5499 104.201C38.4139 104.201 39.1979 104.825 39.1979 105.801C39.1979 106.713 38.4619 107.449 37.5499 107.449C36.5579 107.449 35.9179 106.713 35.9179 105.801C35.9179 104.825 36.6059 104.201 37.5499 104.201ZM37.5499 109.081C38.6379 109.081 39.5019 109.897 39.5019 111.017C39.5019 112.201 38.6539 112.905 37.5499 112.905C36.4299 112.905 35.5819 112.201 35.5819 111.017C35.5819 109.865 36.4459 109.081 37.5499 109.081Z" fill="#4A5660"/>
<path d="M62.5919 114.233L65.4239 109.849C66.1599 108.681 66.5919 107.801 66.5919 106.505C66.5919 104.313 64.8159 102.617 62.4479 102.617C60.1279 102.617 58.3199 104.185 58.3199 106.585C58.3199 108.649 59.9359 110.217 61.9359 110.217C62.3199 110.217 62.8319 110.153 63.1519 110.009L63.1679 110.025L60.2559 114.233H62.5919ZM64.6399 106.457C64.6399 107.785 63.7279 108.697 62.4319 108.697C61.1519 108.697 60.2879 107.769 60.2879 106.489C60.2879 105.145 61.1679 104.217 62.4639 104.217C63.7919 104.217 64.6399 105.273 64.6399 106.457Z" fill="#4A5660"/>
<path d="M82.0465 114.233H83.9665V102.905H82.2225L78.6865 105.753L79.8065 107.081L82.0465 105.241V114.233ZM96.2281 108.569C96.2281 104.905 94.8041 102.617 92.2441 102.617C89.6681 102.617 88.2281 104.905 88.2281 108.569C88.2281 112.233 89.6681 114.521 92.2441 114.521C94.8041 114.521 96.2281 112.233 96.2281 108.569ZM94.2601 108.569C94.2601 110.153 93.9561 112.889 92.2441 112.889C90.5161 112.889 90.1961 110.153 90.1961 108.569C90.1961 106.985 90.5161 104.217 92.2441 104.217C93.9561 104.217 94.2601 106.985 94.2601 108.569Z" fill="#4A5660"/>
<path d="M106.944 114.233H108.864V102.905H107.12L103.584 105.753L104.704 107.081L106.944 105.241V114.233ZM116.71 114.233H118.63V102.905H116.886L113.35 105.753L114.47 107.081L116.71 105.241V114.233Z" fill="#4A5660"/>
<path d="M131.842 114.233H133.762V102.905H132.018L128.482 105.753L129.602 107.081L131.842 105.241V114.233ZM138.248 114.233H145.784V112.473H140.68L143.944 109.353C144.952 108.393 145.768 107.385 145.768 105.929C145.768 103.753 143.96 102.617 141.992 102.617C139.912 102.617 138.392 103.993 138.168 105.865L140.04 106.153C140.184 105.049 140.872 104.217 141.96 104.217C142.984 104.217 143.768 104.905 143.768 105.961C143.768 106.841 143.32 107.497 142.616 108.185L138.248 112.473V114.233Z" fill="#4A5660"/>
<path d="M156.74 114.233H158.66V102.905H156.916L153.38 105.753L154.5 107.081L156.74 105.241V114.233ZM165.434 109.097H165.914C167.114 109.097 168.666 109.545 168.666 111.017C168.666 112.377 167.578 112.889 166.586 112.889C165.386 112.889 164.602 112.185 164.33 111.289L162.538 111.849C163.146 113.737 164.746 114.521 166.65 114.521C168.57 114.521 170.602 113.385 170.602 111.033C170.602 109.641 169.642 108.585 168.266 108.313V108.281C169.498 107.977 170.298 106.937 170.298 105.721C170.298 103.689 168.634 102.617 166.65 102.617C164.842 102.617 163.354 103.689 162.954 105.209L164.762 105.673C164.986 104.809 165.642 104.217 166.57 104.217C167.53 104.217 168.362 104.825 168.362 105.849C168.362 107.241 167.082 107.561 165.946 107.561H165.434V109.097Z" fill="#4A5660"/>
<path d="M181.637 114.233H183.557V102.905H181.813L178.277 105.753L179.397 107.081L181.637 105.241V114.233ZM192.507 114.233H194.395V111.881H195.979V110.233H194.395V102.905H192.091L187.275 110.185V111.881H192.507V114.233ZM192.507 110.233H189.259L192.475 105.161H192.507V110.233Z" fill="#4A5660"/>
<path d="M32.2511 139.13H34.1711V127.802H32.4271L28.8911 130.65L30.0111 131.978L32.2511 130.138V139.13ZM45.6327 127.802H39.1847L38.9927 133.994C39.6807 133.642 40.7687 133.37 41.6327 133.37C42.8647 133.37 44.1607 133.882 44.1607 135.626C44.1607 137.002 43.1847 137.786 42.0487 137.786C41.0407 137.786 40.2407 137.194 39.9207 136.298L38.1767 136.938C38.7687 138.458 40.1127 139.418 42.0007 139.418C44.2567 139.418 46.1287 137.93 46.1287 135.418C46.1287 133.13 44.4487 131.834 42.2247 131.834C41.8247 131.834 41.2487 131.882 40.8967 131.978L41.0087 129.53H45.6327V127.802Z" fill="#4A5660"/>
<path d="M57.1491 139.13H59.0691V127.802H57.3251L53.7891 130.65L54.9091 131.978L57.1491 130.138V139.13ZM67.1707 127.802L64.3387 132.186C63.6027 133.354 63.1707 134.234 63.1707 135.53C63.1707 137.722 64.9467 139.418 67.3147 139.418C69.6347 139.418 71.4427 137.85 71.4427 135.45C71.4427 133.386 69.8267 131.818 67.8267 131.818C67.4427 131.818 66.9307 131.882 66.6267 132.01L66.6107 131.994L69.5067 127.802H67.1707ZM65.1227 135.578C65.1227 134.25 66.0347 133.338 67.3307 133.338C68.6107 133.338 69.4747 134.266 69.4747 135.546C69.4747 136.89 68.5947 137.786 67.2987 137.786C65.9707 137.786 65.1227 136.762 65.1227 135.578Z" fill="#4A5660"/>
<path d="M82.0465 139.13H83.9665V127.802H82.2225L78.6865 130.65L79.8065 131.978L82.0465 130.138V139.13ZM88.1641 129.53H93.8441L89.0761 139.13H91.3321L95.8601 129.562V127.802H88.1641V129.53Z" fill="#4A5660"/>
<path d="M106.944 139.13H108.864V127.802H107.12L103.584 130.65L104.704 131.978L106.944 130.138V139.13ZM117.126 127.514C115.142 127.514 113.542 128.746 113.542 130.666C113.542 131.978 114.294 132.778 115.302 133.146V133.178C114.198 133.466 113.174 134.458 113.174 135.93C113.174 138.186 114.95 139.418 117.126 139.418C119.302 139.418 121.078 138.186 121.078 135.93C121.078 134.538 120.134 133.466 118.95 133.178V133.146C119.974 132.81 120.71 131.898 120.71 130.586C120.71 128.666 119.11 127.514 117.126 127.514ZM117.126 129.098C117.99 129.098 118.774 129.722 118.774 130.698C118.774 131.61 118.038 132.346 117.126 132.346C116.134 132.346 115.494 131.61 115.494 130.698C115.494 129.722 116.182 129.098 117.126 129.098ZM117.126 133.978C118.214 133.978 119.078 134.794 119.078 135.914C119.078 137.098 118.23 137.802 117.126 137.802C116.006 137.802 115.158 137.098 115.158 135.914C115.158 134.762 116.022 133.978 117.126 133.978Z" fill="#4A5660"/>
<rect x="127.315" y="123.802" width="19.656" height="19.656" rx="9.82802" fill="#F04D23"/>
<path d="M131.842 139.13H133.762V127.802H132.018L128.482 130.65L129.602 131.978L131.842 130.138V139.13ZM142.168 139.13L145 134.746C145.736 133.578 146.168 132.698 146.168 131.402C146.168 129.21 144.392 127.514 142.024 127.514C139.704 127.514 137.896 129.082 137.896 131.482C137.896 133.546 139.512 135.114 141.512 135.114C141.896 135.114 142.408 135.05 142.728 134.906L142.744 134.922L139.832 139.13H142.168ZM144.216 131.354C144.216 132.682 143.304 133.594 142.008 133.594C140.728 133.594 139.864 132.666 139.864 131.386C139.864 130.042 140.744 129.114 142.04 129.114C143.368 129.114 144.216 130.17 144.216 131.354Z" fill="white"/>
<path d="M153.38 139.13H160.916V137.37H155.812L159.076 134.25C160.084 133.29 160.9 132.282 160.9 130.826C160.9 128.65 159.092 127.514 157.124 127.514C155.044 127.514 153.524 128.89 153.3 130.762L155.172 131.05C155.316 129.946 156.004 129.114 157.092 129.114C158.116 129.114 158.9 129.802 158.9 130.858C158.9 131.738 158.452 132.394 157.748 133.082L153.38 137.37V139.13ZM170.922 133.466C170.922 129.802 169.498 127.514 166.938 127.514C164.362 127.514 162.922 129.802 162.922 133.466C162.922 137.13 164.362 139.418 166.938 139.418C169.498 139.418 170.922 137.13 170.922 133.466ZM168.954 133.466C168.954 135.05 168.65 137.786 166.938 137.786C165.21 137.786 164.89 135.05 164.89 133.466C164.89 131.882 165.21 129.114 166.938 129.114C168.65 129.114 168.954 131.882 168.954 133.466Z" fill="#4A5660"/>
<path d="M178.277 139.13H185.813V137.37H180.709L183.973 134.25C184.981 133.29 185.797 132.282 185.797 130.826C185.797 128.65 183.989 127.514 182.021 127.514C179.941 127.514 178.421 128.89 178.197 130.762L180.069 131.05C180.213 129.946 180.901 129.114 181.989 129.114C183.013 129.114 183.797 129.802 183.797 130.858C183.797 131.738 183.349 132.394 182.645 133.082L178.277 137.37V139.13ZM191.403 139.13H193.323V127.802H191.579L188.043 130.65L189.163 131.978L191.403 130.138V139.13Z" fill="#4A5660"/>
<path d="M28.8911 164.028H36.4271V162.268H31.3231L34.5871 159.148C35.5951 158.188 36.4111 157.18 36.4111 155.724C36.4111 153.548 34.6031 152.412 32.6351 152.412C30.5551 152.412 29.0351 153.788 28.8111 155.66L30.6831 155.948C30.8271 154.844 31.5151 154.012 32.6031 154.012C33.6271 154.012 34.4111 154.7 34.4111 155.756C34.4111 156.636 33.9631 157.292 33.2591 157.98L28.8911 162.268V164.028ZM38.6567 164.028H46.1927V162.268H41.0887L44.3527 159.148C45.3607 158.188 46.1767 157.18 46.1767 155.724C46.1767 153.548 44.3687 152.412 42.4007 152.412C40.3207 152.412 38.8007 153.788 38.5767 155.66L40.4487 155.948C40.5927 154.844 41.2807 154.012 42.3687 154.012C43.3927 154.012 44.1767 154.7 44.1767 155.756C44.1767 156.636 43.7287 157.292 43.0247 157.98L38.6567 162.268V164.028Z" fill="#4A5660"/>
<path d="M53.7891 164.028H61.3251V162.268H56.2211L59.4851 159.148C60.4931 158.188 61.3091 157.18 61.3091 155.724C61.3091 153.548 59.5011 152.412 57.5331 152.412C55.4531 152.412 53.9331 153.788 53.7091 155.66L55.5811 155.948C55.7251 154.844 56.4131 154.012 57.5011 154.012C58.5251 154.012 59.3091 154.7 59.3091 155.756C59.3091 156.636 58.8611 157.292 58.1571 157.98L53.7891 162.268V164.028ZM65.8427 158.892H66.3227C67.5227 158.892 69.0747 159.34 69.0747 160.812C69.0747 162.172 67.9867 162.684 66.9947 162.684C65.7947 162.684 65.0107 161.98 64.7387 161.084L62.9467 161.644C63.5547 163.532 65.1547 164.316 67.0587 164.316C68.9787 164.316 71.0107 163.18 71.0107 160.828C71.0107 159.436 70.0507 158.38 68.6747 158.108V158.076C69.9067 157.772 70.7067 156.732 70.7067 155.516C70.7067 153.484 69.0427 152.412 67.0587 152.412C65.2507 152.412 63.7627 153.484 63.3627 155.004L65.1707 155.468C65.3947 154.604 66.0507 154.012 66.9787 154.012C67.9387 154.012 68.7707 154.62 68.7707 155.644C68.7707 157.036 67.4907 157.356 66.3547 157.356H65.8427V158.892Z" fill="#4A5660"/>
<path d="M78.6865 164.028H86.2225V162.268H81.1185L84.3825 159.148C85.3905 158.188 86.2065 157.18 86.2065 155.724C86.2065 153.548 84.3985 152.412 82.4305 152.412C80.3505 152.412 78.8305 153.788 78.6065 155.66L80.4785 155.948C80.6225 154.844 81.3105 154.012 82.3985 154.012C83.4225 154.012 84.2065 154.7 84.2065 155.756C84.2065 156.636 83.7585 157.292 83.0545 157.98L78.6865 162.268V164.028ZM92.9161 164.028H94.8041V161.676H96.3881V160.028H94.8041V152.7H92.5001L87.6841 159.98V161.676H92.9161V164.028ZM92.9161 160.028H89.6681L92.8841 154.956H92.9161V160.028Z" fill="#4A5660"/>
<path d="M103.584 164.028H111.12V162.268H106.016L109.28 159.148C110.288 158.188 111.104 157.18 111.104 155.724C111.104 153.548 109.296 152.412 107.328 152.412C105.248 152.412 103.728 153.788 103.504 155.66L105.376 155.948C105.52 154.844 106.208 154.012 107.296 154.012C108.32 154.012 109.104 154.7 109.104 155.756C109.104 156.636 108.656 157.292 107.952 157.98L103.584 162.268V164.028ZM120.326 152.7H113.878L113.686 158.892C114.374 158.54 115.462 158.268 116.326 158.268C117.558 158.268 118.854 158.78 118.854 160.524C118.854 161.9 117.878 162.684 116.742 162.684C115.734 162.684 114.934 162.092 114.614 161.196L112.87 161.836C113.462 163.356 114.806 164.316 116.694 164.316C118.95 164.316 120.822 162.828 120.822 160.316C120.822 158.028 119.142 156.732 116.918 156.732C116.518 156.732 115.942 156.78 115.59 156.876L115.702 154.428H120.326V152.7Z" fill="#4A5660"/>
<path d="M128.482 164.028H136.018V162.268H130.914L134.178 159.148C135.186 158.188 136.002 157.18 136.002 155.724C136.002 153.548 134.194 152.412 132.226 152.412C130.146 152.412 128.626 153.788 128.402 155.66L130.274 155.948C130.418 154.844 131.106 154.012 132.194 154.012C133.218 154.012 134.002 154.7 134.002 155.756C134.002 156.636 133.554 157.292 132.85 157.98L128.482 162.268V164.028ZM141.864 152.7L139.032 157.084C138.296 158.252 137.864 159.132 137.864 160.428C137.864 162.62 139.64 164.316 142.008 164.316C144.328 164.316 146.136 162.748 146.136 160.348C146.136 158.284 144.52 156.716 142.52 156.716C142.136 156.716 141.624 156.78 141.32 156.908L141.304 156.892L144.2 152.7H141.864ZM139.816 160.476C139.816 159.148 140.728 158.236 142.024 158.236C143.304 158.236 144.168 159.164 144.168 160.444C144.168 161.788 143.288 162.684 141.992 162.684C140.664 162.684 139.816 161.66 139.816 160.476Z" fill="#4A5660"/>
<path d="M153.38 164.028H160.916V162.268H155.812L159.076 159.148C160.084 158.188 160.9 157.18 160.9 155.724C160.9 153.548 159.092 152.412 157.124 152.412C155.044 152.412 153.524 153.788 153.3 155.66L155.172 155.948C155.316 154.844 156.004 154.012 157.092 154.012C158.116 154.012 158.9 154.7 158.9 155.756C158.9 156.636 158.452 157.292 157.748 157.98L153.38 162.268V164.028ZM162.858 154.428H168.538L163.77 164.028H166.026L170.554 154.46V152.7H162.858V154.428Z" fill="#4A5660"/>
<path d="M178.277 164.028H185.813V162.268H180.709L183.973 159.148C184.981 158.188 185.797 157.18 185.797 155.724C185.797 153.548 183.989 152.412 182.021 152.412C179.941 152.412 178.421 153.788 178.197 155.66L180.069 155.948C180.213 154.844 180.901 154.012 181.989 154.012C183.013 154.012 183.797 154.7 183.797 155.756C183.797 156.636 183.349 157.292 182.645 157.98L178.277 162.268V164.028ZM191.819 152.412C189.835 152.412 188.235 153.644 188.235 155.564C188.235 156.876 188.987 157.676 189.995 158.044V158.076C188.891 158.364 187.867 159.356 187.867 160.828C187.867 163.084 189.643 164.316 191.819 164.316C193.995 164.316 195.771 163.084 195.771 160.828C195.771 159.436 194.827 158.364 193.643 158.076V158.044C194.667 157.708 195.403 156.796 195.403 155.484C195.403 153.564 193.803 152.412 191.819 152.412ZM191.819 153.996C192.683 153.996 193.467 154.62 193.467 155.596C193.467 156.508 192.731 157.244 191.819 157.244C190.827 157.244 190.187 156.508 190.187 155.596C190.187 154.62 190.875 153.996 191.819 153.996ZM191.819 158.876C192.907 158.876 193.771 159.692 193.771 160.812C193.771 161.996 192.923 162.7 191.819 162.7C190.699 162.7 189.851 161.996 189.851 160.812C189.851 159.66 190.715 158.876 191.819 158.876Z" fill="#4A5660"/>
<path d="M28.8911 188.926H36.4271V187.166H31.3231L34.5871 184.046C35.5951 183.086 36.4111 182.078 36.4111 180.622C36.4111 178.446 34.6031 177.31 32.6351 177.31C30.5551 177.31 29.0351 178.686 28.8111 180.558L30.6831 180.846C30.8271 179.742 31.5151 178.91 32.6031 178.91C33.6271 178.91 34.4111 179.598 34.4111 180.654C34.4111 181.534 33.9631 182.19 33.2591 182.878L28.8911 187.166V188.926ZM42.5767 188.926L45.4087 184.542C46.1447 183.374 46.5767 182.494 46.5767 181.198C46.5767 179.006 44.8007 177.31 42.4327 177.31C40.1127 177.31 38.3047 178.878 38.3047 181.278C38.3047 183.342 39.9207 184.91 41.9207 184.91C42.3047 184.91 42.8167 184.846 43.1367 184.702L43.1527 184.718L40.2407 188.926H42.5767ZM44.6247 181.15C44.6247 182.478 43.7127 183.39 42.4167 183.39C41.1367 183.39 40.2727 182.462 40.2727 181.182C40.2727 179.838 41.1527 178.91 42.4487 178.91C43.7767 178.91 44.6247 179.966 44.6247 181.15Z" fill="#4A5660"/>
<path d="M56.0771 183.79H56.5571C57.7571 183.79 59.3091 184.238 59.3091 185.71C59.3091 187.07 58.2211 187.582 57.2291 187.582C56.0291 187.582 55.2451 186.878 54.9731 185.982L53.1811 186.542C53.7891 188.43 55.3891 189.214 57.2931 189.214C59.2131 189.214 61.2451 188.078 61.2451 185.726C61.2451 184.334 60.2851 183.278 58.9091 183.006V182.974C60.1411 182.67 60.9411 181.63 60.9411 180.414C60.9411 178.382 59.2771 177.31 57.2931 177.31C55.4851 177.31 53.9971 178.382 53.5971 179.902L55.4051 180.366C55.6291 179.502 56.2851 178.91 57.2131 178.91C58.1731 178.91 59.0051 179.518 59.0051 180.542C59.0051 181.934 57.7251 182.254 56.5891 182.254H56.0771V183.79ZM71.3307 183.262C71.3307 179.598 69.9067 177.31 67.3467 177.31C64.7707 177.31 63.3307 179.598 63.3307 183.262C63.3307 186.926 64.7707 189.214 67.3467 189.214C69.9067 189.214 71.3307 186.926 71.3307 183.262ZM69.3627 183.262C69.3627 184.846 69.0587 187.582 67.3467 187.582C65.6187 187.582 65.2987 184.846 65.2987 183.262C65.2987 181.678 65.6187 178.91 67.3467 178.91C69.0587 178.91 69.3627 181.678 69.3627 183.262Z" fill="#4A5660"/>
<path d="M80.9745 183.79H81.4545C82.6545 183.79 84.2065 184.238 84.2065 185.71C84.2065 187.07 83.1185 187.582 82.1265 187.582C80.9265 187.582 80.1425 186.878 79.8705 185.982L78.0785 186.542C78.6865 188.43 80.2865 189.214 82.1905 189.214C84.1105 189.214 86.1425 188.078 86.1425 185.726C86.1425 184.334 85.1825 183.278 83.8065 183.006V182.974C85.0385 182.67 85.8385 181.63 85.8385 180.414C85.8385 178.382 84.1745 177.31 82.1905 177.31C80.3825 177.31 78.8945 178.382 78.4945 179.902L80.3025 180.366C80.5265 179.502 81.1825 178.91 82.1105 178.91C83.0705 178.91 83.9025 179.518 83.9025 180.542C83.9025 181.934 82.6225 182.254 81.4865 182.254H80.9745V183.79ZM91.8121 188.926H93.7321V177.598H91.9881L88.4521 180.446L89.5721 181.774L91.8121 179.934V188.926Z" fill="#4A5660"/>
</g>
<defs>
<filter id="filter0_d_1283_6067" x="0.861573" y="0.383516" width="225.389" height="231.527" filterUnits="userSpaceOnUse" color-interpolation-filters="sRGB">
<feFlood flood-opacity="0" result="BackgroundImageFix"/>
<feColorMatrix in="SourceAlpha" type="matrix" values="0 0 0 0 0 0 0 0 0 0 0 0 0 0 0 0 0 0 127 0" result="hardAlpha"/>
<feOffset dx="1.3104" dy="10.4832"/>
<feGaussianBlur stdDeviation="6.22442"/>
<feColorMatrix type="matrix" values="0 0 0 0 0 0 0 0 0 0 0 0 0 0 0 0 0 0 0.09 0"/>
<feBlend mode="normal" in2="BackgroundImageFix" result="effect1_dropShadow_1283_6067"/>
<feBlend mode="normal" in="SourceGraphic" in2="effect1_dropShadow_1283_6067" result="shape"/>
</filter>
<clipPath id="clip0_1283_6067">
<rect width="169.042" height="14" fill="white" transform="translate(27.7246 18.074)"/>
</clipPath>
</defs>
</svg>
