<svg width="153" height="234" viewBox="0 0 153 234" fill="none" xmlns="http://www.w3.org/2000/svg">
<g filter="url(#filter0_d_1283_6068)">
<rect x="11.6299" y="2.48486" width="127.109" height="208.354" rx="7.86242" fill="white"/>
<path d="M63.125 39.072H61.867V33.0835H59.8097V32.1793C60.3863 32.1706 60.8711 32.0221 61.2643 31.7338C61.6574 31.4367 61.902 31.0524 61.9981 30.5806H63.125V39.072ZM67.0502 35.1277L66.4212 34.0663L68.9241 31.76H64.8618V30.5806H70.6276V31.7338L68.2033 33.9746C68.8935 33.9746 69.5006 34.2017 70.0248 34.656C70.5577 35.1102 70.8242 35.7436 70.8242 36.556C70.8242 37.3073 70.549 37.9494 69.9986 38.4823C69.4482 39.0152 68.6969 39.2817 67.7447 39.2817C66.81 39.2817 66.0587 39.024 65.4908 38.5085C64.9317 37.9844 64.6303 37.351 64.5866 36.6085L65.8446 36.3202C65.8708 36.8705 66.0587 37.3161 66.4081 37.6568C66.7663 37.9888 67.2074 38.1547 67.7316 38.1547C68.2907 38.1547 68.7275 38.0062 69.042 37.7092C69.3652 37.4034 69.5269 37.0278 69.5269 36.5823C69.5269 36.0668 69.3565 35.6737 69.0158 35.4029C68.6751 35.1321 68.2689 34.9967 67.7971 34.9967C67.5438 34.9967 67.2948 35.0403 67.0502 35.1277ZM72.6028 38.8755C72.4281 38.7007 72.3407 38.4867 72.3407 38.2334C72.3407 37.98 72.4281 37.766 72.6028 37.5913C72.7775 37.4078 72.9916 37.3161 73.2449 37.3161C73.4983 37.3161 73.7123 37.4078 73.887 37.5913C74.0705 37.766 74.1622 37.98 74.1622 38.2334C74.1622 38.4867 74.0705 38.7007 73.887 38.8755C73.7123 39.0502 73.4983 39.1375 73.2449 39.1375C72.9916 39.1375 72.7775 39.0502 72.6028 38.8755ZM72.5897 34.2628C72.415 34.0881 72.3276 33.8741 72.3276 33.6207C72.3276 33.3674 72.415 33.1534 72.5897 32.9786C72.7644 32.7952 72.9785 32.7035 73.2318 32.7035C73.4852 32.7035 73.6992 32.7952 73.8739 32.9786C74.0574 33.1534 74.1491 33.3674 74.1491 33.6207C74.1491 33.8741 74.0574 34.0881 73.8739 34.2628C73.6992 34.4376 73.4852 34.5249 73.2318 34.5249C72.9785 34.5249 72.7644 34.4376 72.5897 34.2628ZM78.0939 35.1277L77.4649 34.0663L79.9678 31.76H75.9056V30.5806H81.6713V31.7338L79.2471 33.9746C79.9372 33.9746 80.5444 34.2017 81.0685 34.656C81.6014 35.1102 81.8679 35.7436 81.8679 36.556C81.8679 37.3073 81.5927 37.9494 81.0423 38.4823C80.492 39.0152 79.7407 39.2817 78.7884 39.2817C77.8537 39.2817 77.1024 39.024 76.5345 38.5085C75.9754 37.9844 75.674 37.351 75.6304 36.6085L76.8884 36.3202C76.9146 36.8705 77.1024 37.3161 77.4518 37.6568C77.81 37.9888 78.2512 38.1547 78.7753 38.1547C79.3344 38.1547 79.7712 38.0062 80.0857 37.7092C80.409 37.4034 80.5706 37.0278 80.5706 36.5823C80.5706 36.0668 80.4002 35.6737 80.0595 35.4029C79.7188 35.1321 79.3126 34.9967 78.8409 34.9967C78.5875 34.9967 78.3385 35.0403 78.0939 35.1277ZM85.0618 32.0745C84.5638 32.5986 84.3149 33.5159 84.3149 34.8263C84.3149 36.1367 84.5638 37.054 85.0618 37.5782C85.4112 37.9451 85.8611 38.1285 86.4115 38.1285C86.9619 38.1285 87.4118 37.9451 87.7612 37.5782C88.2592 37.054 88.5081 36.1367 88.5081 34.8263C88.5081 33.5159 88.2592 32.5986 87.7612 32.0745C87.4118 31.7076 86.9619 31.5241 86.4115 31.5241C85.8611 31.5241 85.4112 31.7076 85.0618 32.0745ZM83.8038 37.9058C83.2971 37.1545 83.0438 36.128 83.0438 34.8263C83.0438 33.5246 83.2971 32.4982 83.8038 31.7469C84.4066 30.8383 85.2758 30.384 86.4115 30.384C87.5472 30.384 88.4164 30.8383 89.0192 31.7469C89.5259 32.4982 89.7792 33.5246 89.7792 34.8263C89.7792 36.128 89.5259 37.1545 89.0192 37.9058C88.4164 38.8143 87.5472 39.2686 86.4115 39.2686C85.2758 39.2686 84.4066 38.8143 83.8038 37.9058Z" fill="black"/>
<rect x="27.6826" y="15.2612" width="94.5546" height="37.6217" rx="4.91401" stroke="#EEEEFF" stroke-width="0.655202"/>
<path d="M63.1131 87.832H61.8552V81.8435H59.7978V80.9393C60.3744 80.9306 60.8593 80.7821 61.2524 80.4938C61.6455 80.1967 61.8901 79.8124 61.9862 79.3406H63.1131V87.832ZM64.5486 85.9188V84.4381L68.1915 79.3406H69.9605V84.7264H71.4151V85.9188H69.9605V87.832H68.7156V85.9188H64.5486ZM68.7156 84.7264V80.5724L65.7279 84.7264H68.7156ZM72.8725 87.6355C72.6978 87.4608 72.6104 87.2467 72.6104 86.9934C72.6104 86.74 72.6978 86.526 72.8725 86.3513C73.0472 86.1678 73.2612 86.0761 73.5146 86.0761C73.7679 86.0761 73.982 86.1678 74.1567 86.3513C74.3401 86.526 74.4319 86.74 74.4319 86.9934C74.4319 87.2467 74.3401 87.4608 74.1567 87.6355C73.982 87.8102 73.7679 87.8976 73.5146 87.8976C73.2612 87.8976 73.0472 87.8102 72.8725 87.6355ZM72.8594 83.0229C72.6847 82.8481 72.5973 82.6341 72.5973 82.3808C72.5973 82.1274 72.6847 81.9134 72.8594 81.7387C73.0341 81.5552 73.2481 81.4635 73.5015 81.4635C73.7548 81.4635 73.9688 81.5552 74.1436 81.7387C74.327 81.9134 74.4188 82.1274 74.4188 82.3808C74.4188 82.6341 74.327 82.8481 74.1436 83.0229C73.9688 83.1976 73.7548 83.2849 73.5015 83.2849C73.2481 83.2849 73.0341 83.1976 72.8594 83.0229ZM78.0884 80.8345C77.5904 81.3586 77.3415 82.2759 77.3415 83.5863C77.3415 84.8967 77.5904 85.814 78.0884 86.3382C78.4378 86.7051 78.8877 86.8885 79.4381 86.8885C79.9885 86.8885 80.4384 86.7051 80.7878 86.3382C81.2858 85.814 81.5348 84.8967 81.5348 83.5863C81.5348 82.2759 81.2858 81.3586 80.7878 80.8345C80.4384 80.4676 79.9885 80.2841 79.4381 80.2841C78.8877 80.2841 78.4378 80.4676 78.0884 80.8345ZM76.8304 86.6658C76.3237 85.9145 76.0704 84.888 76.0704 83.5863C76.0704 82.2847 76.3237 81.2582 76.8304 80.5069C77.4332 79.5983 78.3024 79.1441 79.4381 79.1441C80.5738 79.1441 81.443 79.5983 82.0458 80.5069C82.5525 81.2582 82.8058 82.2847 82.8058 83.5863C82.8058 84.888 82.5525 85.9145 82.0458 86.6658C81.443 87.5743 80.5738 88.0286 79.4381 88.0286C78.3024 88.0286 77.4332 87.5743 76.8304 86.6658ZM86.0737 80.8345C85.5757 81.3586 85.3267 82.2759 85.3267 83.5863C85.3267 84.8967 85.5757 85.814 86.0737 86.3382C86.4231 86.7051 86.873 86.8885 87.4234 86.8885C87.9737 86.8885 88.4237 86.7051 88.7731 86.3382C89.271 85.814 89.52 84.8967 89.52 83.5863C89.52 82.2759 89.271 81.3586 88.7731 80.8345C88.4237 80.4676 87.9737 80.2841 87.4234 80.2841C86.873 80.2841 86.4231 80.4676 86.0737 80.8345ZM84.8157 86.6658C84.309 85.9145 84.0556 84.888 84.0556 83.5863C84.0556 82.2847 84.309 81.2582 84.8157 80.5069C85.4185 79.5983 86.2877 79.1441 87.4234 79.1441C88.5591 79.1441 89.4283 79.5983 90.0311 80.5069C90.5378 81.2582 90.7911 82.2847 90.7911 83.5863C90.7911 84.888 90.5378 85.9145 90.0311 86.6658C89.4283 87.5743 88.5591 88.0286 87.4234 88.0286C86.2877 88.0286 85.4185 87.5743 84.8157 86.6658Z" fill="black"/>
<rect x="27.6826" y="64.0212" width="95.5546" height="37.6217" rx="4.91401" stroke="#EEEEFF" stroke-width="0.655202"/>
<path d="M63.4843 136.592H62.2263V130.604H60.1689V129.7C60.7455 129.691 61.2304 129.542 61.6235 129.254C62.0166 128.957 62.2612 128.573 62.3573 128.101H63.4843V136.592ZM64.9197 134.679V133.198L68.5626 128.101H70.3316V133.487H71.7862V134.679H70.3316V136.592H69.0867V134.679H64.9197ZM69.0867 133.487V129.333L66.099 133.487H69.0867ZM73.2436 136.396C73.0689 136.221 72.9815 136.007 72.9815 135.754C72.9815 135.5 73.0689 135.286 73.2436 135.112C73.4183 134.928 73.6323 134.836 73.8857 134.836C74.139 134.836 74.3531 134.928 74.5278 135.112C74.7112 135.286 74.803 135.5 74.803 135.754C74.803 136.007 74.7112 136.221 74.5278 136.396C74.3531 136.57 74.139 136.658 73.8857 136.658C73.6323 136.658 73.4183 136.57 73.2436 136.396ZM73.2305 131.783C73.0558 131.608 72.9684 131.394 72.9684 131.141C72.9684 130.888 73.0558 130.674 73.2305 130.499C73.4052 130.315 73.6192 130.224 73.8726 130.224C74.1259 130.224 74.34 130.315 74.5147 130.499C74.6981 130.674 74.7899 130.888 74.7899 131.141C74.7899 131.394 74.6981 131.608 74.5147 131.783C74.34 131.958 74.1259 132.045 73.8726 132.045C73.6192 132.045 73.4052 131.958 73.2305 131.783ZM78.7347 132.648L78.1057 131.587L80.6086 129.28H76.5463V128.101H82.3121V129.254L79.8878 131.495C80.578 131.495 81.1851 131.722 81.7093 132.176C82.2422 132.63 82.5087 133.264 82.5087 134.076C82.5087 134.828 82.2335 135.47 81.6831 136.003C81.1327 136.536 80.3814 136.802 79.4292 136.802C78.4944 136.802 77.7432 136.544 77.1753 136.029C76.6162 135.505 76.3148 134.871 76.2711 134.129L77.5291 133.84C77.5553 134.391 77.7432 134.836 78.0926 135.177C78.4508 135.509 78.8919 135.675 79.4161 135.675C79.9752 135.675 80.412 135.526 80.7265 135.229C81.0497 134.924 81.2114 134.548 81.2114 134.103C81.2114 133.587 81.041 133.194 80.7003 132.923C80.3596 132.652 79.9534 132.517 79.4816 132.517C79.2283 132.517 78.9793 132.561 78.7347 132.648ZM85.7026 129.595C85.2046 130.119 84.9556 131.036 84.9556 132.347C84.9556 133.657 85.2046 134.574 85.7026 135.098C86.052 135.465 86.5019 135.649 87.0523 135.649C87.6026 135.649 88.0525 135.465 88.402 135.098C88.8999 134.574 89.1489 133.657 89.1489 132.347C89.1489 131.036 88.8999 130.119 88.402 129.595C88.0525 129.228 87.6026 129.044 87.0523 129.044C86.5019 129.044 86.052 129.228 85.7026 129.595ZM84.4446 135.426C83.9379 134.675 83.6845 133.648 83.6845 132.347C83.6845 131.045 83.9379 130.018 84.4446 129.267C85.0474 128.359 85.9166 127.904 87.0523 127.904C88.188 127.904 89.0572 128.359 89.66 129.267C90.1667 130.018 90.42 131.045 90.42 132.347C90.42 133.648 90.1667 134.675 89.66 135.426C89.0572 136.335 88.188 136.789 87.0523 136.789C85.9166 136.789 85.0474 136.335 84.4446 135.426Z" fill="black"/>
<rect x="27.6826" y="112.781" width="95.5546" height="37.6217" rx="4.91401" stroke="#EEEEFF" stroke-width="0.655202"/>
<rect x="27.355" y="161.214" width="96.2098" height="38.2769" rx="5.24161" fill="#603F8B"/>
<path d="M63.2854 185.352H62.0274V179.364H59.9701V178.46C60.5467 178.451 61.0315 178.302 61.4246 178.014C61.8178 177.717 62.0624 177.333 62.1585 176.861H63.2854V185.352ZM64.7208 183.046L65.9526 182.679C65.9875 183.203 66.1797 183.627 66.5292 183.95C66.8874 184.273 67.3329 184.435 67.8658 184.435C68.3812 184.435 68.8136 184.278 69.1631 183.963C69.5125 183.649 69.6872 183.234 69.6872 182.718C69.6872 182.159 69.5125 181.727 69.1631 181.421C68.8136 181.115 68.3768 180.962 67.8527 180.962C67.215 180.962 66.6995 181.168 66.3064 181.578C66.1841 181.535 65.9832 181.456 65.7036 181.342C65.4241 181.229 65.2057 181.142 65.0484 181.08L66.1492 176.861H70.6307V178.04H67.0009L66.3719 180.478C66.7476 180.058 67.3242 179.849 68.1017 179.849C68.9491 179.849 69.6392 180.102 70.1721 180.609C70.7137 181.115 70.9845 181.801 70.9845 182.666C70.9845 183.487 70.6963 184.177 70.1197 184.736C69.5431 185.287 68.7918 185.562 67.8658 185.562C66.9922 185.562 66.2627 185.317 65.6774 184.828C65.1008 184.339 64.782 183.745 64.7208 183.046ZM72.6992 185.156C72.5245 184.981 72.4372 184.767 72.4372 184.514C72.4372 184.26 72.5245 184.046 72.6992 183.872C72.874 183.688 73.088 183.596 73.3413 183.596C73.5947 183.596 73.8087 183.688 73.9834 183.872C74.1669 184.046 74.2586 184.26 74.2586 184.514C74.2586 184.767 74.1669 184.981 73.9834 185.156C73.8087 185.33 73.5947 185.418 73.3413 185.418C73.088 185.418 72.874 185.33 72.6992 185.156ZM72.6861 180.543C72.5114 180.368 72.424 180.154 72.424 179.901C72.424 179.648 72.5114 179.434 72.6861 179.259C72.8608 179.075 73.0749 178.984 73.3282 178.984C73.5816 178.984 73.7956 179.075 73.9703 179.259C74.1538 179.434 74.2455 179.648 74.2455 179.901C74.2455 180.154 74.1538 180.368 73.9703 180.543C73.7956 180.718 73.5816 180.805 73.3282 180.805C73.0749 180.805 72.8608 180.718 72.6861 180.543ZM77.9151 178.355C77.4172 178.879 77.1682 179.796 77.1682 181.107C77.1682 182.417 77.4172 183.334 77.9151 183.858C78.2646 184.225 78.7145 184.409 79.2649 184.409C79.8152 184.409 80.2651 184.225 80.6146 183.858C81.1125 183.334 81.3615 182.417 81.3615 181.107C81.3615 179.796 81.1125 178.879 80.6146 178.355C80.2651 177.988 79.8152 177.804 79.2649 177.804C78.7145 177.804 78.2646 177.988 77.9151 178.355ZM76.6572 184.186C76.1505 183.435 75.8971 182.408 75.8971 181.107C75.8971 179.805 76.1505 178.778 76.6572 178.027C77.2599 177.119 78.1292 176.664 79.2649 176.664C80.4005 176.664 81.2698 177.119 81.8726 178.027C82.3793 178.778 82.6326 179.805 82.6326 181.107C82.6326 182.408 82.3793 183.435 81.8726 184.186C81.2698 185.095 80.4005 185.549 79.2649 185.549C78.1292 185.549 77.2599 185.095 76.6572 184.186ZM85.9004 178.355C85.4025 178.879 85.1535 179.796 85.1535 181.107C85.1535 182.417 85.4025 183.334 85.9004 183.858C86.2499 184.225 86.6998 184.409 87.2501 184.409C87.8005 184.409 88.2504 184.225 88.5998 183.858C89.0978 183.334 89.3468 182.417 89.3468 181.107C89.3468 179.796 89.0978 178.879 88.5998 178.355C88.2504 177.988 87.8005 177.804 87.2501 177.804C86.6998 177.804 86.2499 177.988 85.9004 178.355ZM84.6424 184.186C84.1357 183.435 83.8824 182.408 83.8824 181.107C83.8824 179.805 84.1357 178.778 84.6424 178.027C85.2452 177.119 86.1145 176.664 87.2501 176.664C88.3858 176.664 89.2551 177.119 89.8578 178.027C90.3645 178.778 90.6179 179.805 90.6179 181.107C90.6179 182.408 90.3645 183.435 89.8578 184.186C89.2551 185.095 88.3858 185.549 87.2501 185.549C86.1145 185.549 85.2452 185.095 84.6424 184.186Z" fill="white"/>
</g>
<defs>
<filter id="filter0_d_1283_6068" x="0.491455" y="0.519258" width="152.007" height="233.252" filterUnits="userSpaceOnUse" color-interpolation-filters="sRGB">
<feFlood flood-opacity="0" result="BackgroundImageFix"/>
<feColorMatrix in="SourceAlpha" type="matrix" values="0 0 0 0 0 0 0 0 0 0 0 0 0 0 0 0 0 0 127 0" result="hardAlpha"/>
<feOffset dx="1.3104" dy="10.4832"/>
<feGaussianBlur stdDeviation="6.22442"/>
<feColorMatrix type="matrix" values="0 0 0 0 0 0 0 0 0 0 0 0 0 0 0 0 0 0 0.09 0"/>
<feBlend mode="normal" in2="BackgroundImageFix" result="effect1_dropShadow_1283_6068"/>
<feBlend mode="normal" in="SourceGraphic" in2="effect1_dropShadow_1283_6068" result="shape"/>
</filter>
</defs>
</svg>
